# xmcd CD database file
#
# Track frame offsets:
#	150
#	22873
#	48765
#	76556
#	101102
#	125171
#	147765
#	168811
#	188234
#	212068
#
# Disc length: 3076 seconds
#
# Revision: 52
# Processed by: cddbd v1.5.2PL0 Copyright (c) Steve Scherf et al.
# Submitted via: CDex 1.70beta3
#
DISCID=790c020a
DTITLE=コブクロ - ALL SINGLES BEST Disc1
DYEAR=2006
DGENRE=JPop
TTITLE0=君という名の翼
TTITLE1=あなたへと続く道
TTITLE2=ここにしか咲かない花
TTITLE3=毎朝、ボクの横にいて。-Sweet drip mix-＜by コブクロ＞
TTITLE4=Million Films
TTITLE5=永遠にともに
TTITLE6=blue blue
TTITLE7=宝島
TTITLE8=雪の降らない街
TTITLE9=願いの詩
EXTD=YEAR: 2006
EXTT0=
EXTT1=
EXTT2=
EXTT3=
EXTT4=
EXTT5=
EXTT6=
EXTT7=
EXTT8=
EXTT9=
PLAYORDER=
